<?xml version="1.0" encoding="UTF-8"?>
<svg width="58px" height="59px" viewBox="0 0 58 59" version="1.1" xmlns="http://www.w3.org/2000/svg" xmlns:xlink="http://www.w3.org/1999/xlink">
    <!-- Generator: Sketch 51.1 (57501) - http://www.bohemiancoding.com/sketch -->
    <title>Shape</title>
    <desc>Created with Sketch.</desc>
    <defs></defs>
    <g id="final" stroke="none" stroke-width="1" fill="none" fill-rule="evenodd">
        <path d="M45.6080565,31.1623557 C45.6080565,31.1623557 41.0110452,42.6301026 27.3199464,39.2894981 C11.5302119,35.4502958 15.2777755,23.3343719 15.2777755,23.3343719 L45.6080565,31.1623557 Z M44.2589336,18.996572 C44.2589336,21.389841 42.3102006,23.3343719 39.9117599,23.3343719 C37.5133192,23.3343719 35.5645862,21.389841 35.5645862,18.996572 C35.5645862,16.6033031 37.5133192,14.6587721 39.9117599,14.6587721 C42.3601681,14.7086319 44.2589336,16.6531629 44.2589336,18.996572 Z M30.9176074,15.755687 C30.9176074,15.9052663 30.9675749,16.0049859 30.9675749,16.1047054 C30.9675749,17.1019008 30.4678997,17.9495169 29.718387,18.5478341 C28.9189068,19.3954502 27.8196215,19.9439076 26.5704336,19.9439076 C24.171993,19.9439076 22.2232599,17.9993767 22.2232599,15.6061077 C22.2232599,13.2128388 24.171993,11.2683078 26.5704336,11.2683078 C28.9688743,11.2683078 30.9176074,13.2128388 30.9176074,15.6061077 C30.9176074,15.6559675 30.9176074,15.7058273 30.9176074,15.755687 Z M58,27.0239949 C58,12.1159239 45.8578941,0 30.9176074,0 C15.9773207,0 3.83521473,12.1159239 3.83521473,27.0239949 C3.83521473,33.6054844 6.18368789,39.6385164 10.081154,44.3253347 C10.1311215,44.3751945 10.1311215,44.3751945 10.1311215,44.4250543 C10.4808941,44.923652 11.0305368,45.6715485 11.3803094,46.3695853 C13.8287175,51.604861 -0.112218883,55.5437828 0.237553715,56.790277 C0.587326314,58.0367713 7.33294072,60.7291988 18.925404,57.3885943 C28.2693291,54.2972886 32.1168277,54.3471483 32.1168277,54.3471483 C46.4575042,53.6989713 58,41.5331877 58,27.0239949 Z" id="Shape" fill="#F8E41E" fill-rule="nonzero"></path>
    </g>
</svg>