<svg xmlns="http://www.w3.org/2000/svg" style="display: none;">
  <symbol id="smile-logo-with-text" viewBox="0 0 503 218">
    <path fill="#fff" d="M439.2 202.2c-16.4 0-27.1-13-27.1-28.5s10.7-28.7 27.1-28.7c16.7 0 27.4 13.2 27.4 28.7s-10.7 28.5-27.4 28.5zm0 13.9c26 0 42.8-19.6 42.8-42.4 0-23-16.7-42.6-42.8-42.6-25.7 0-42.4 19.6-42.4 42.6 0 22.9 16.7 42.4 42.4 42.4zm-114.4-47.3h29.4c-2.5 18.7-16.2 33.7-40.4 33.7-32.8 0-49.3-24.4-49.3-50.6 0-26.2 17.8-50.6 47.4-50.6 18.5 0 32.6 10.2 35.8 23H364c-3-20.7-24.2-37.6-52.2-37.6-39.5 0-64 31.3-64 65.2 0 33.7 23 65.2 64 65.2 34.7 0 54.9-19.6 59.7-48.3h13.4v-14.6h-60v14.6h-.1zm-163.9 45.4h15.5v-41.7c0-14.4 7.5-27.6 23-27.6 15.1 0 20.5 11.4 20.5 26.4v42.9h15.5v-47.7c0-11.4-1.8-18.5-6.2-24.6-4.8-6.8-13-10.7-24.2-10.7-13.7 0-23.7 6.6-28.5 16.4v-14.2H161v80.8h-.1zm-56.3-12c-16.4 0-27.1-13-27.1-28.5S88.2 145 104.6 145c16.7 0 27.4 13.2 27.4 28.7s-10.6 28.5-27.4 28.5zm27.5-68.9v13.9c-5.2-9.8-16.6-16-28.3-16-24.8 0-41.5 19.6-41.5 42.6 0 22.8 16.7 42.4 41.5 42.4 11.8 0 23.2-6.2 28.3-16v14.1h15.3v-80.9h-15.3v-.1zM16.5 199.6V89.5H.3v124.7h57v-14.6H16.5z"/>
    <path fill="#f8e41e" d="M477.5 63.2s-9.2 23-36.6 16.3c-31.6-7.7-24.1-32-24.1-32l60.7 15.7zm-2.7-24.4c0 4.8-3.9 8.7-8.7 8.7-4.8 0-8.7-3.9-8.7-8.7 0-4.8 3.9-8.7 8.7-8.7 4.9.1 8.7 4 8.7 8.7zm-26.7-6.5c0 .3.1.5.1.7 0 2-1 3.7-2.5 4.9-1.6 1.7-3.8 2.8-6.3 2.8-4.8 0-8.7-3.9-8.7-8.7 0-4.8 3.9-8.7 8.7-8.7 4.8 0 8.7 3.9 8.7 8.7v.3zm54.2 22.6C502.3 25 478 .7 448.1.7c-29.9 0-54.2 24.3-54.2 54.2 0 13.2 4.7 25.3 12.5 34.7.1.1.1.1.1.2.7 1 1.8 2.5 2.5 3.9 4.9 10.5-23 18.4-22.3 20.9.7 2.5 14.2 7.9 37.4 1.2 18.7-6.2 26.4-6.1 26.4-6.1 28.7-1.3 51.8-25.7 51.8-54.8z"/>
  </symbol>
  <symbol id="smile-logo" viewBox="0 0 117 120">
    <path d="M91.5 63.2s-9.2 23-36.6 16.3c-31.6-7.7-24.1-32-24.1-32l60.7 15.7zm-2.7-24.4c0 4.8-3.9 8.7-8.7 8.7-4.8 0-8.7-3.9-8.7-8.7 0-4.8 3.9-8.7 8.7-8.7 4.9.1 8.7 4 8.7 8.7zm-26.7-6.5c0 .3.1.5.1.7 0 2-1 3.7-2.5 4.9-1.6 1.7-3.8 2.8-6.3 2.8-4.8 0-8.7-3.9-8.7-8.7 0-4.8 3.9-8.7 8.7-8.7 4.8 0 8.7 3.9 8.7 8.7v.3zm54.2 22.6C116.3 25 92 .7 62.1.7 32.2.7 7.9 25 7.9 54.9c0 13.2 4.7 25.3 12.5 34.7.1.1.1.1.1.2.7 1 1.8 2.5 2.5 3.9 4.9 10.5-23 18.4-22.3 20.9.7 2.5 14.2 7.9 37.4 1.2 18.7-6.2 26.4-6.1 26.4-6.1 28.7-1.3 51.8-25.7 51.8-54.8z"/>
  </symbol>
  <symbol id="gear" viewBox="0 0 512 512">
    <path d="M444.788 291.1l42.616 24.599c4.867 2.809 7.126 8.618 5.459 13.985-11.07 35.642-29.97 67.842-54.689 94.586a12.016 12.016 0 0 1-14.832 2.254l-42.584-24.595a191.577 191.577 0 0 1-60.759 35.13v49.182a12.01 12.01 0 0 1-9.377 11.718c-34.956 7.85-72.499 8.256-109.219.007-5.49-1.233-9.403-6.096-9.403-11.723v-49.184a191.555 191.555 0 0 1-60.759-35.13l-42.584 24.595a12.016 12.016 0 0 1-14.832-2.254c-24.718-26.744-43.619-58.944-54.689-94.586-1.667-5.366.592-11.175 5.459-13.985L67.212 291.1a193.48 193.48 0 0 1 0-70.199l-42.616-24.599c-4.867-2.809-7.126-8.618-5.459-13.985 11.07-35.642 29.97-67.842 54.689-94.586a12.016 12.016 0 0 1 14.832-2.254l42.584 24.595a191.577 191.577 0 0 1 60.759-35.13V25.759a12.01 12.01 0 0 1 9.377-11.718c34.956-7.85 72.499-8.256 109.219-.007 5.49 1.233 9.403 6.096 9.403 11.723v49.184a191.555 191.555 0 0 1 60.759 35.13l42.584-24.595a12.016 12.016 0 0 1 14.832 2.254c24.718 26.744 43.619 58.944 54.689 94.586 1.667 5.366-.592 11.175-5.459 13.985L444.788 220.9a193.485 193.485 0 0 1 0 70.2zM336 256c0-44.112-35.888-80-80-80s-80 35.888-80 80 35.888 80 80 80 80-35.888 80-80z"/>
  </symbol>
  <symbol id="arrow-left" viewBox="0 0 448 512">
    <path d="M257.5 445.1l-22.2 22.2c-9.4 9.4-24.6 9.4-33.9 0L7 273c-9.4-9.4-9.4-24.6 0-33.9L201.4 44.7c9.4-9.4 24.6-9.4 33.9 0l22.2 22.2c9.5 9.5 9.3 25-.4 34.3L136.6 216H424c13.3 0 24 10.7 24 24v32c0 13.3-10.7 24-24 24H136.6l120.5 114.8c9.8 9.3 10 24.8.4 34.3z"/>
  </symbol>
  <symbol id="arrow-right" viewBox="0 0 448 512">
    <path d="M190.5 66.9l22.2-22.2c9.4-9.4 24.6-9.4 33.9 0L441 239c9.4 9.4 9.4 24.6 0 33.9L246.6 467.3c-9.4 9.4-24.6 9.4-33.9 0l-22.2-22.2c-9.5-9.5-9.3-25 .4-34.3L311.4 296H24c-13.3 0-24-10.7-24-24v-32c0-13.3 10.7-24 24-24h287.4L190.9 101.2c-9.8-9.3-10-24.8-.4-34.3z"/>
  </symbol>
  <symbol id="speechbubble-full" viewBox="0 0 512 512">
    <path d="M256 32C114.6 32 0 125.1 0 240c0 49.6 21.4 95 57 130.7C44.5 421.1 2.7 466 2.2 466.5c-2.2 2.3-2.8 5.7-1.5 8.7S4.8 480 8 480c66.3 0 116-31.8 140.6-51.4 32.7 12.3 69 19.4 107.4 19.4 141.4 0 256-93.1 256-208S397.4 32 256 32z"/>
  </symbol>
  <symbol id="speechbubble-empty" viewBox="0 0 512 512">
    <path d="M256 32C114.6 32 0 125.1 0 240c0 47.6 19.9 91.2 52.9 126.3C38 405.7 7 439.1 6.5 439.5c-6.6 7-8.4 17.2-4.6 26S14.4 480 24 480c61.5 0 110-25.7 139.1-46.3C192 442.8 223.2 448 256 448c141.4 0 256-93.1 256-208S397.4 32 256 32zm0 368c-26.7 0-53.1-4.1-78.4-12.1l-22.7-7.2-19.5 13.8c-14.3 10.1-33.9 21.4-57.5 29 7.3-12.1 14.4-25.7 19.9-40.2l10.6-28.1-20.6-21.8C69.7 314.1 48 282.2 48 240c0-88.2 93.3-160 208-160s208 71.8 208 160-93.3 160-208 160z"/>
  </symbol>
  <symbol id="alert" viewBox="0 0 576 512"><path d="M569.517 440.013C587.975 472.007 564.806 512 527.94 512H48.054c-36.937 0-59.999-40.055-41.577-71.987L246.423 23.985c18.467-32.009 64.72-31.951 83.154 0l239.94 416.028zM288 354c-25.405 0-46 20.595-46 46s20.595 46 46 46 46-20.595 46-46-20.595-46-46-46zm-43.673-165.346l7.418 136c.347 6.364 5.609 11.346 11.982 11.346h48.546c6.373 0 11.635-4.982 11.982-11.346l7.418-136c.375-6.874-5.098-12.654-11.982-12.654h-63.383c-6.884 0-12.356 5.78-11.981 12.654z"/>
  </symbol>
  <symbol id="facebook-messenger" viewBox="0 0 448 512">
    <path d="M224 32C15.9 32-77.5 278 84.6 400.6V480l75.7-42c142.2 39.8 285.4-59.9 285.4-198.7C445.8 124.8 346.5 32 224 32zm23.4 278.1L190 250.5 79.6 311.6l121.1-128.5 57.4 59.6 110.4-61.1-121.1 128.5z"/>
  </symbol>
  <symbol id="facebook" viewBox="0 0 448 512">
    <path d="M448 80v352c0 26.5-21.5 48-48 48h-85.3V302.8h60.6l8.7-67.6h-69.3V192c0-19.6 5.4-32.9 33.5-32.9H384V98.7c-6.2-.8-27.4-2.7-52.2-2.7-51.6 0-87 31.5-87 89.4v49.9H184v67.6h60.9V480H48c-26.5 0-48-21.5-48-48V80c0-26.5 21.5-48 48-48h352c26.5 0 48 21.5 48 48z"/>
  </symbol>
  <symbol id="skype" viewBox="0 0 448 512">
    <path d="M424.7 299.8c2.9-14 4.7-28.9 4.7-43.8 0-113.5-91.9-205.3-205.3-205.3-14.9 0-29.7 1.7-43.8 4.7C161.3 40.7 137.7 32 112 32 50.2 32 0 82.2 0 144c0 25.7 8.7 49.3 23.3 68.2-2.9 14-4.7 28.9-4.7 43.8 0 113.5 91.9 205.3 205.3 205.3 14.9 0 29.7-1.7 43.8-4.7 19 14.6 42.6 23.3 68.2 23.3 61.8 0 112-50.2 112-112 .1-25.6-8.6-49.2-23.2-68.1zm-194.6 91.5c-65.6 0-120.5-29.2-120.5-65 0-16 9-30.6 29.5-30.6 31.2 0 34.1 44.9 88.1 44.9 25.7 0 42.3-11.4 42.3-26.3 0-18.7-16-21.6-42-28-62.5-15.4-117.8-22-117.8-87.2 0-59.2 58.6-81.1 109.1-81.1 55.1 0 110.8 21.9 110.8 55.4 0 16.9-11.4 31.8-30.3 31.8-28.3 0-29.2-33.5-75-33.5-25.7 0-42 7-42 22.5 0 19.8 20.8 21.8 69.1 33 41.4 9.3 90.7 26.8 90.7 77.6 0 59.1-57.1 86.5-112 86.5z"/>
  </symbol>
  <symbol id="letter" viewBox="0 0 512 512">
    <path d="M464 64H48C21.49 64 0 85.49 0 112v288c0 26.51 21.49 48 48 48h416c26.51 0 48-21.49 48-48V112c0-26.51-21.49-48-48-48zm0 48v40.805c-22.422 18.259-58.168 46.651-134.587 106.49-16.841 13.247-50.201 45.072-73.413 44.701-23.208.375-56.579-31.459-73.413-44.701C106.18 199.465 70.425 171.067 48 152.805V112h416zM48 400V214.398c22.914 18.251 55.409 43.862 104.938 82.646 21.857 17.205 60.134 55.186 103.062 54.955 42.717.231 80.509-37.199 103.053-54.947 49.528-38.783 82.032-64.401 104.947-82.653V400H48z"/>
  </symbol>
  <symbol id="whatsapp" viewBox="0 0 448 512">
    <path d="M380.9 97.1C339 55.1 283.2 32 223.9 32c-122.4 0-222 99.6-222 222 0 39.1 10.2 77.3 29.6 111L0 480l117.7-30.9c32.4 17.7 68.9 27 106.1 27h.1c122.3 0 224.1-99.6 224.1-222 0-59.3-25.2-115-67.1-157zm-157 341.6c-33.2 0-65.7-8.9-94-25.7l-6.7-4-69.8 18.3L72 359.2l-4.4-7c-18.5-29.4-28.2-63.3-28.2-98.2 0-101.7 82.8-184.5 184.6-184.5 49.3 0 95.6 19.2 130.4 54.1 34.8 34.9 56.2 81.2 56.1 130.5 0 101.8-84.9 184.6-186.6 184.6zm101.2-138.2c-5.5-2.8-32.8-16.2-37.9-18-5.1-1.9-8.8-2.8-12.5 2.8-3.7 5.6-14.3 18-17.6 21.8-3.2 3.7-6.5 4.2-12 1.4-32.6-16.3-54-29.1-75.5-66-5.7-9.8 5.7-9.1 16.3-30.3 1.8-3.7.9-6.9-.5-9.7-1.4-2.8-12.5-30.1-17.1-41.2-4.5-10.8-9.1-9.3-12.5-9.5-3.2-.2-6.9-.2-10.6-.2-3.7 0-9.7 1.4-14.8 6.9-5.1 5.6-19.4 19-19.4 46.3 0 27.3 19.9 53.7 22.6 57.4 2.8 3.7 39.1 59.7 94.8 83.8 35.2 15.2 49 16.5 66.6 13.9 10.7-1.6 32.8-13.4 37.4-26.4 4.6-13 4.6-24.1 3.2-26.4-1.3-2.5-5-3.9-10.5-6.6z"/>
  </symbol>
  <symbol id="phone" viewBox="0 0 448 512">
    <path d="M400 32H48C21.49 32 0 53.49 0 80v352c0 26.51 21.49 48 48 48h352c26.51 0 48-21.49 48-48V80c0-26.51-21.49-48-48-48zM94 416c-7.033 0-13.057-4.873-14.616-11.627l-14.998-65a15 15 0 0 1 8.707-17.16l69.998-29.999a15 15 0 0 1 17.518 4.289l30.997 37.885c48.944-22.963 88.297-62.858 110.781-110.78l-37.886-30.997a15.001 15.001 0 0 1-4.289-17.518l30-69.998a15 15 0 0 1 17.16-8.707l65 14.998A14.997 14.997 0 0 1 384 126c0 160.292-129.945 290-290 290z"/>
  </symbol>
  <symbol id="handshake" viewBox="0 0 640 512">
    <path d="M434.7 64h-85.9c-8 0-15.7 3-21.6 8.4l-98.3 90c-.1.1-.2.3-.3.4-16.6 15.6-16.3 40.5-2.1 56 12.7 13.9 39.4 17.6 56.1 2.7.1-.1.3-.1.4-.2l79.9-73.2c6.5-5.9 16.7-5.5 22.6 1 6 6.5 5.5 16.6-1 22.6l-26.1 23.9L504 313.8c2.9 2.4 5.5 5 7.9 7.7V128l-54.6-54.6c-5.9-6-14.1-9.4-22.6-9.4zM544 128.2v223.9c0 17.7 14.3 32 32 32h64V128.2h-96zm48 223.9c-8.8 0-16-7.2-16-16s7.2-16 16-16 16 7.2 16 16-7.2 16-16 16zM0 384h64c17.7 0 32-14.3 32-32V128.2H0V384zm48-63.9c8.8 0 16 7.2 16 16s-7.2 16-16 16-16-7.2-16-16c0-8.9 7.2-16 16-16zm435.9 18.6L334.6 217.5l-30 27.5c-29.7 27.1-75.2 24.5-101.7-4.4-26.9-29.4-24.8-74.9 4.4-101.7L289.1 64h-83.8c-8.5 0-16.6 3.4-22.6 9.4L128 128v223.9h18.3l90.5 81.9c27.4 22.3 67.7 18.1 90-9.3l.2-.2 17.9 15.5c15.9 13 39.4 10.5 52.3-5.4l31.4-38.6 5.4 4.4c13.7 11.1 33.9 9.1 45-4.7l9.5-11.7c11.2-13.8 9.1-33.9-4.6-45.1z"/>
  </symbol>
  <symbol id="play" viewBox="0 0 512 512">
    <path d="M371.7 238l-176-107c-15.8-8.8-35.7 2.5-35.7 21v208c0 18.4 19.8 29.8 35.7 21l176-101c16.4-9.1 16.4-32.8 0-42zM504 256C504 119 393 8 256 8S8 119 8 256s111 248 248 248 248-111 248-248zm-448 0c0-110.5 89.5-200 200-200s200 89.5 200 200-89.5 200-200 200S56 366.5 56 256z"/>
  </symbol>
  <symbol id="stop" viewBox="0 0 512 512">
    <path d="M504 256C504 119 393 8 256 8S8 119 8 256s111 248 248 248 248-111 248-248zm-448 0c0-110.5 89.5-200 200-200s200 89.5 200 200-89.5 200-200 200S56 366.5 56 256zm296-80v160c0 8.8-7.2 16-16 16H176c-8.8 0-16-7.2-16-16V176c0-8.8 7.2-16 16-16h160c8.8 0 16 7.2 16 16z"/>
  </symbol>
  <symbol id="microphone" viewBox="0 0 384 512">
    <path d="M96 256V96c0-53.019 42.981-96 96-96s96 42.981 96 96v160c0 53.019-42.981 96-96 96s-96-42.981-96-96zm252-56h-24c-6.627 0-12 5.373-12 12v42.68c0 66.217-53.082 120.938-119.298 121.318C126.213 376.38 72 322.402 72 256v-44c0-6.627-5.373-12-12-12H36c-6.627 0-12 5.373-12 12v44c0 84.488 62.693 154.597 144 166.278V468h-68c-6.627 0-12 5.373-12 12v20c0 6.627 5.373 12 12 12h184c6.627 0 12-5.373 12-12v-20c0-6.627-5.373-12-12-12h-68v-45.722c81.307-11.681 144-81.79 144-166.278v-44c0-6.627-5.373-12-12-12z"/>
  </symbol>
  <symbol id="trash" viewBox="0 0 448 512">
    <path d="M192 188v216c0 6.627-5.373 12-12 12h-24c-6.627 0-12-5.373-12-12V188c0-6.627 5.373-12 12-12h24c6.627 0 12 5.373 12 12zm100-12h-24c-6.627 0-12 5.373-12 12v216c0 6.627 5.373 12 12 12h24c6.627 0 12-5.373 12-12V188c0-6.627-5.373-12-12-12zm132-96c13.255 0 24 10.745 24 24v12c0 6.627-5.373 12-12 12h-20v336c0 26.51-21.49 48-48 48H80c-26.51 0-48-21.49-48-48V128H12c-6.627 0-12-5.373-12-12v-12c0-13.255 10.745-24 24-24h74.411l34.018-56.696A48 48 0 0 1 173.589 0h100.823a48 48 0 0 1 41.16 23.304L349.589 80H424zm-269.611 0h139.223L276.16 50.913A6 6 0 0 0 271.015 48h-94.028a6 6 0 0 0-5.145 2.913L154.389 80zM368 128H80v330a6 6 0 0 0 6 6h276a6 6 0 0 0 6-6V128z"/>
  </symbol>
  <symbol id="caret-left" viewBox="0 0 320 512">
    <path d="M34.52 239.03L228.87 44.69c9.37-9.37 24.57-9.37 33.94 0l22.67 22.67c9.36 9.36 9.37 24.52.04 33.9L131.49 256l154.02 154.75c9.34 9.38 9.32 24.54-.04 33.9l-22.67 22.67c-9.37 9.37-24.57 9.37-33.94 0L34.52 272.97c-9.37-9.37-9.37-24.57 0-33.94z"/>
  </symbol>
  <symbol id="caret-right" viewBox="0 0 320 512">
    <path d="M285.476 272.971L91.132 467.314c-9.373 9.373-24.569 9.373-33.941 0l-22.667-22.667c-9.357-9.357-9.375-24.522-.04-33.901L188.505 256 34.484 101.255c-9.335-9.379-9.317-24.544.04-33.901l22.667-22.667c9.373-9.373 24.569-9.373 33.941 0L285.475 239.03c9.373 9.372 9.373 24.568.001 33.941z"/>
  </symbol>
  <symbol id="caret-down" viewBox="0 0 320 512">
    <path d="M143 352.3L7 216.3c-9.4-9.4-9.4-24.6 0-33.9l22.6-22.6c9.4-9.4 24.6-9.4 33.9 0l96.4 96.4 96.4-96.4c9.4-9.4 24.6-9.4 33.9 0l22.6 22.6c9.4 9.4 9.4 24.6 0 33.9l-136 136c-9.2 9.4-24.4 9.4-33.8 0z"/>
  </symbol>
  <symbol id="logout" viewBox="0 0 512 512">
    <path d="M497 273L329 441c-15 15-41 4.5-41-17v-96H152c-13.3 0-24-10.7-24-24v-96c0-13.3 10.7-24 24-24h136V88c0-21.4 25.9-32 41-17l168 168c9.3 9.4 9.3 24.6 0 34zM192 436v-40c0-6.6-5.4-12-12-12H96c-17.7 0-32-14.3-32-32V160c0-17.7 14.3-32 32-32h84c6.6 0 12-5.4 12-12V76c0-6.6-5.4-12-12-12H96c-53 0-96 43-96 96v192c0 53 43 96 96 96h84c6.6 0 12-5.4 12-12z"/>
  </symbol>
  <symbol id="check" viewBox="0 0 512 512">
    <path d="M173.898 439.404l-166.4-166.4c-9.997-9.997-9.997-26.206 0-36.204l36.203-36.204c9.997-9.998 26.207-9.998 36.204 0L192 312.69 432.095 72.596c9.997-9.997 26.207-9.997 36.204 0l36.203 36.204c9.997 9.997 9.997 26.206 0 36.204l-294.4 294.401c-9.998 9.997-26.207 9.997-36.204-.001z"/>
  </symbol>
  <symbol id="times" viewBox="0 0 384 512">
    <path d="M323.1 441l53.9-53.9c9.4-9.4 9.4-24.5 0-33.9L279.8 256l97.2-97.2c9.4-9.4 9.4-24.5 0-33.9L323.1 71c-9.4-9.4-24.5-9.4-33.9 0L192 168.2 94.8 71c-9.4-9.4-24.5-9.4-33.9 0L7 124.9c-9.4 9.4-9.4 24.5 0 33.9l97.2 97.2L7 353.2c-9.4 9.4-9.4 24.5 0 33.9L60.9 441c9.4 9.4 24.5 9.4 33.9 0l97.2-97.2 97.2 97.2c9.3 9.3 24.5 9.3 33.9 0z"/>
  </symbol>
  <symbol id="delete-user" viewBox="0 0 640 512">
    <path d="M224 32c77.32 0 140 62.68 140 140s-62.68 140-140 140S84 249.32 84 172 146.68 32 224 32zm160.373 292.093l-62.399-15.6c-65.557 47.154-145.021 36.631-195.948 0l-62.399 15.6C26.233 333.442 0 367.04 0 405.585V438c0 23.196 18.804 42 42 42h364c23.196 0 42-18.804 42-42v-32.415c0-38.545-26.233-72.143-63.627-81.492zM587.897 256l48.596-48.598c4.675-4.675 4.675-12.256 0-16.931l-26.964-26.964c-4.675-4.675-12.256-4.675-16.931 0L544 212.105l-48.598-48.598c-4.675-4.675-12.256-4.675-16.931 0l-26.964 26.964c-4.675 4.675-4.675 12.256 0 16.931L500.103 256l-48.596 48.598c-4.675 4.675-4.675 12.256 0 16.931l26.964 26.964c4.675 4.675 12.256 4.675 16.931 0L544 299.897l48.598 48.596c4.675 4.675 12.256 4.675 16.931 0l26.964-26.964c4.675-4.675 4.675-12.256 0-16.931L587.897 256z"/>
  </symbol>
</svg>
