<?xml version="1.0" encoding="utf-8"?>
<!-- Generator: Adobe Illustrator 22.0.1, SVG Export Plug-In . SVG Version: 6.00 Build 0)  -->
<svg version="1.1" id="Layer_1" xmlns="http://www.w3.org/2000/svg" xmlns:xlink="http://www.w3.org/1999/xlink" x="0px" y="0px"
	 viewBox="0 0 539.9 256.2" style="enable-background:new 0 0 539.9 256.2;" xml:space="preserve">
<style type="text/css">
	.st0{clip-path:url(#SVGID_2_);fill:#FFFFFF;}
	.st1{clip-path:url(#SVGID_2_);fill:#F8E41E;}
</style>
<g>
	<defs>
		<polygon id="SVGID_1_" points="19.3,238 524.3,238 521.3,21.7 19.3,21.7 		"/>
	</defs>
	<clipPath id="SVGID_2_">
		<use xlink:href="#SVGID_1_"  style="overflow:visible;"/>
	</clipPath>
	<path class="st0" d="M458.2,223.2c-16.4,0-27.1-13-27.1-28.5s10.7-28.7,27.1-28.7c16.7,0,27.4,13.2,27.4,28.7
		S474.9,223.2,458.2,223.2 M458.2,237.1c26,0,42.8-19.6,42.8-42.4c0-23-16.7-42.6-42.8-42.6c-25.7,0-42.4,19.6-42.4,42.6
		C415.8,217.6,432.5,237.1,458.2,237.1 M343.8,189.8h29.4c-2.5,18.7-16.2,33.7-40.4,33.7c-32.8,0-49.3-24.4-49.3-50.6
		c0-26.2,17.8-50.6,47.4-50.6c18.5,0,32.6,10.2,35.8,23H383c-3-20.7-24.2-37.6-52.2-37.6c-39.5,0-64,31.3-64,65.2
		c0,33.7,23,65.2,64,65.2c34.7,0,54.9-19.6,59.7-48.3h13.4v-14.6h-60V189.8z M179.9,235.2h15.5v-41.7c0-14.4,7.5-27.6,23-27.6
		c15.1,0,20.5,11.4,20.5,26.4v42.9h15.5v-47.7c0-11.4-1.8-18.5-6.2-24.6c-4.8-6.8-13-10.7-24.2-10.7c-13.7,0-23.7,6.6-28.5,16.4
		v-14.2h-15.5V235.2z M123.6,223.2c-16.4,0-27.1-13-27.1-28.5s10.7-28.7,27.1-28.7c16.7,0,27.4,13.2,27.4,28.7
		S140.4,223.2,123.6,223.2 M151.1,154.3v13.9c-5.2-9.8-16.6-16-28.3-16c-24.8,0-41.5,19.6-41.5,42.6c0,22.8,16.7,42.4,41.5,42.4
		c11.8,0,23.2-6.2,28.3-16v14.1h15.3v-80.9H151.1z M35.5,220.6V110.5H19.3v124.7h57v-14.6H35.5z"/>
	<path class="st1" d="M496.5,84.2c0,0-9.2,23-36.6,16.3c-31.6-7.7-24.1-32-24.1-32L496.5,84.2z M493.8,59.8c0,4.8-3.9,8.7-8.7,8.7
		c-4.8,0-8.7-3.9-8.7-8.7c0-4.8,3.9-8.7,8.7-8.7C490,51.2,493.8,55.1,493.8,59.8 M467.1,53.3c0,0.3,0.1,0.5,0.1,0.7
		c0,2-1,3.7-2.5,4.9c-1.6,1.7-3.8,2.8-6.3,2.8c-4.8,0-8.7-3.9-8.7-8.7c0-4.8,3.9-8.7,8.7-8.7c4.8,0,8.7,3.9,8.7,8.7
		C467.1,53.1,467.1,53.2,467.1,53.3 M521.3,75.9c0-29.9-24.3-54.2-54.2-54.2S412.9,46,412.9,75.9c0,13.2,4.7,25.3,12.5,34.7
		c0.1,0.1,0.1,0.1,0.1,0.2c0.7,1,1.8,2.5,2.5,3.9c4.9,10.5-23,18.4-22.3,20.9c0.7,2.5,14.2,7.9,37.4,1.2c18.7-6.2,26.4-6.1,26.4-6.1
		C498.2,129.4,521.3,105,521.3,75.9"/>
</g>
</svg>
