<?xml version="1.0" encoding="UTF-8"?>
<svg width="250px" height="108px" viewBox="0 0 250 108" version="1.1" xmlns="http://www.w3.org/2000/svg" xmlns:xlink="http://www.w3.org/1999/xlink">
    <!-- Generator: Sketch 51.1 (57501) - http://www.bohemiancoding.com/sketch -->
    <title>Group 6</title>
    <desc>Created with Sketch.</desc>
    <defs></defs>
    <g id="final" stroke="none" stroke-width="1" fill="none" fill-rule="evenodd">
        <g id="Group-6" fill-rule="nonzero">
            <path d="M217.804307,100.572853 C209.6658,100.572853 204.355921,94.0927914 204.355921,86.3665644 C204.355921,78.6403374 209.6658,72.0605828 217.804307,72.0605828 C226.091689,72.0605828 231.401568,78.6403374 231.401568,86.3665644 C231.401568,94.0927914 226.091689,100.572853 217.804307,100.572853 Z M217.804307,107.501534 C230.706818,107.501534 239.043825,97.7315951 239.043825,86.3665644 C239.043825,74.9018405 230.756443,65.1319018 217.804307,65.1319018 C205.050671,65.1319018 196.763289,74.9018405 196.763289,86.3665644 C196.763289,97.7814417 205.050671,107.501534 217.804307,107.501534 Z M161.03326,83.9240798 L175.623022,83.9240798 C174.382396,93.2453988 167.583765,100.722393 155.574505,100.722393 C139.297491,100.722393 131.10936,88.559816 131.10936,75.5 C131.10936,62.440184 139.942617,50.2776074 154.631629,50.2776074 C163.812262,50.2776074 170.809393,55.3619632 172.397394,61.7423313 L180.486276,61.7423313 C178.997525,51.4240798 168.477016,43 154.582004,43 C134.980113,43 122.821978,58.6019939 122.821978,75.5 C122.821978,92.2983129 134.235737,108 154.582004,108 C171.801894,108 181.826152,98.2300613 184.208154,83.9240798 L190.857909,83.9240798 L190.857909,76.6464724 L161.082885,76.6464724 L161.082885,83.9240798 L161.03326,83.9240798 Z M79.6978166,106.554448 L87.389698,106.554448 L87.389698,85.7684049 C87.389698,78.5904908 91.1115761,72.0107362 98.8034575,72.0107362 C106.296839,72.0107362 108.976591,77.6932515 108.976591,85.1702454 L108.976591,106.554448 L116.668472,106.554448 L116.668472,82.7776074 C116.668472,77.095092 115.775222,73.5559816 113.59172,70.5153374 C111.209718,67.1257669 107.140465,65.1817485 101.58246,65.1817485 C94.7838292,65.1817485 89.821325,68.4716258 87.439323,73.3565951 L87.439323,66.2783742 L79.7474416,66.2783742 L79.7474416,106.554448 L79.6978166,106.554448 Z M51.7589182,100.572853 C43.6204114,100.572853 38.310532,94.0927914 38.310532,86.3665644 C38.310532,78.6403374 43.6204114,72.0605828 51.7589182,72.0605828 C60.0463002,72.0605828 65.3561796,78.6403374 65.3561796,86.3665644 C65.3561796,94.0927914 60.0959252,100.572853 51.7589182,100.572853 Z M65.4058046,66.2285276 L65.4058046,73.1572086 C62.8253025,68.2722393 57.1680478,65.1817485 51.3619179,65.1817485 C39.0549076,65.1817485 30.7675257,74.9516871 30.7675257,86.416411 C30.7675257,97.7814417 39.0549076,107.55138 51.3619179,107.55138 C57.2176728,107.55138 62.8749275,104.46089 65.4058046,99.5759202 L65.4058046,106.604294 L72.998436,106.604294 L72.998436,66.2783742 L65.4058046,66.2783742 L65.4058046,66.2285276 Z M8.03925672,99.2768405 L8.03925672,44.3957055 L0,44.3957055 L0,106.554448 L28.2862736,106.554448 L28.2862736,99.2768405 L8.03925672,99.2768405 Z" id="Shape" fill="#FFFFFF"></path>
            <path d="M237.608057,31.1623557 C237.608057,31.1623557 233.011045,42.6301026 219.319946,39.2894981 C203.530212,35.4502958 207.277775,23.3343719 207.277775,23.3343719 L237.608057,31.1623557 Z M236.258934,18.996572 C236.258934,21.389841 234.310201,23.3343719 231.91176,23.3343719 C229.513319,23.3343719 227.564586,21.389841 227.564586,18.996572 C227.564586,16.6033031 229.513319,14.6587721 231.91176,14.6587721 C234.360168,14.7086319 236.258934,16.6531629 236.258934,18.996572 Z M222.917607,15.755687 C222.917607,15.9052663 222.967575,16.0049859 222.967575,16.1047054 C222.967575,17.1019008 222.4679,17.9495169 221.718387,18.5478341 C220.918907,19.3954502 219.819621,19.9439076 218.570434,19.9439076 C216.171993,19.9439076 214.22326,17.9993767 214.22326,15.6061077 C214.22326,13.2128388 216.171993,11.2683078 218.570434,11.2683078 C220.968874,11.2683078 222.917607,13.2128388 222.917607,15.6061077 C222.917607,15.6559675 222.917607,15.7058273 222.917607,15.755687 Z M250,27.0239949 C250,12.1159239 237.857894,0 222.917607,0 C207.977321,0 195.835215,12.1159239 195.835215,27.0239949 C195.835215,33.6054844 198.183688,39.6385164 202.081154,44.3253347 C202.131122,44.3751945 202.131122,44.3751945 202.131122,44.4250543 C202.480894,44.923652 203.030537,45.6715485 203.380309,46.3695853 C205.828718,51.604861 191.887781,55.5437828 192.237554,56.790277 C192.587326,58.0367713 199.332941,60.7291988 210.925404,57.3885943 C220.269329,54.2972886 224.116828,54.3471483 224.116828,54.3471483 C238.457504,53.6989713 250,41.5331877 250,27.0239949 Z" id="Shape" fill="#F8E41E"></path>
        </g>
    </g>
</svg>