<?xml version="1.0" encoding="UTF-8"?>
<svg width="240px" height="65px" viewBox="0 0 240 65" version="1.1" xmlns="http://www.w3.org/2000/svg" xmlns:xlink="http://www.w3.org/1999/xlink">
    <!-- Generator: Sketch 51.1 (57501) - http://www.bohemiancoding.com/sketch -->
    <title>Shape</title>
    <desc>Created with Sketch.</desc>
    <defs></defs>
    <g id="final" stroke="none" stroke-width="1" fill="none" fill-rule="evenodd">
        <path d="M217.804307,57.5728528 C209.6658,57.5728528 204.355921,51.0927914 204.355921,43.3665644 C204.355921,35.6403374 209.6658,29.0605828 217.804307,29.0605828 C226.091689,29.0605828 231.401568,35.6403374 231.401568,43.3665644 C231.401568,51.0927914 226.091689,57.5728528 217.804307,57.5728528 Z M217.804307,64.5015337 C230.706818,64.5015337 239.043825,54.7315951 239.043825,43.3665644 C239.043825,31.9018405 230.756443,22.1319018 217.804307,22.1319018 C205.050671,22.1319018 196.763289,31.9018405 196.763289,43.3665644 C196.763289,54.7814417 205.050671,64.5015337 217.804307,64.5015337 Z M161.03326,40.9240798 L175.623022,40.9240798 C174.382396,50.2453988 167.583765,57.7223926 155.574505,57.7223926 C139.297491,57.7223926 131.10936,45.559816 131.10936,32.5 C131.10936,19.440184 139.942617,7.27760736 154.631629,7.27760736 C163.812262,7.27760736 170.809393,12.3619632 172.397394,18.7423313 L180.486276,18.7423313 C178.997525,8.42407975 168.477016,0 154.582004,0 C134.980113,0 122.821978,15.6019939 122.821978,32.5 C122.821978,49.2983129 134.235737,65 154.582004,65 C171.801894,65 181.826152,55.2300613 184.208154,40.9240798 L190.857909,40.9240798 L190.857909,33.6464724 L161.082885,33.6464724 L161.082885,40.9240798 L161.03326,40.9240798 Z M79.6978166,63.5544479 L87.389698,63.5544479 L87.389698,42.7684049 C87.389698,35.5904908 91.1115761,29.0107362 98.8034575,29.0107362 C106.296839,29.0107362 108.976591,34.6932515 108.976591,42.1702454 L108.976591,63.5544479 L116.668472,63.5544479 L116.668472,39.7776074 C116.668472,34.095092 115.775222,30.5559816 113.59172,27.5153374 C111.209718,24.1257669 107.140465,22.1817485 101.58246,22.1817485 C94.7838292,22.1817485 89.821325,25.4716258 87.439323,30.3565951 L87.439323,23.2783742 L79.7474416,23.2783742 L79.7474416,63.5544479 L79.6978166,63.5544479 Z M51.7589182,57.5728528 C43.6204114,57.5728528 38.310532,51.0927914 38.310532,43.3665644 C38.310532,35.6403374 43.6204114,29.0605828 51.7589182,29.0605828 C60.0463002,29.0605828 65.3561796,35.6403374 65.3561796,43.3665644 C65.3561796,51.0927914 60.0959252,57.5728528 51.7589182,57.5728528 Z M65.4058046,23.2285276 L65.4058046,30.1572086 C62.8253025,25.2722393 57.1680478,22.1817485 51.3619179,22.1817485 C39.0549076,22.1817485 30.7675257,31.9516871 30.7675257,43.416411 C30.7675257,54.7814417 39.0549076,64.5513804 51.3619179,64.5513804 C57.2176728,64.5513804 62.8749275,61.4608896 65.4058046,56.5759202 L65.4058046,63.6042945 L72.998436,63.6042945 L72.998436,23.2783742 L65.4058046,23.2783742 L65.4058046,23.2285276 Z M8.03925672,56.2768405 L8.03925672,1.39570552 L0,1.39570552 L0,63.5544479 L28.2862736,63.5544479 L28.2862736,56.2768405 L8.03925672,56.2768405 Z" id="Shape" fill="#FFFFFF" fill-rule="nonzero"></path>
    </g>
</svg>